<?xml version="1.0" encoding="UTF-8"?><svg id="Notes" xmlns="http://www.w3.org/2000/svg" viewBox="0 0 79.37 399.69"><defs><style>.cls-1{fill:#c4e5fa;stroke-width:0px;}</style></defs><polygon class="cls-1" points="5.65 143.17 5.65 256.53 73.67 256.53 73.67 233.86 28.32 233.86 28.32 143.17 5.65 143.17"/><polygon class="cls-1" points="51.03 280.63 51.03 303.3 28.35 303.3 28.35 280.63 5.68 280.63 5.68 394 28.35 394 28.35 371.33 51.03 371.33 51.03 394 73.7 394 73.7 348.65 28.35 348.65 28.35 325.98 73.7 325.98 73.7 280.63 51.03 280.63"/><path class="cls-1" d="m55.62,85.05c0,8.79-7.13,15.92-15.92,15.92s-15.92-7.13-15.92-15.92,7.13-15.92,15.92-15.92,15.92,7.13,15.92,15.92m18.11,34.05V51.04H28.36V5.67H5.67v113.43h68.06Z"/></svg>